<svg id="Component_2_1" data-name="Component 2 – 1" xmlns="http://www.w3.org/2000/svg" width="34" height="34" viewBox="0 0 34 34">
  <circle id="Ellipse_26" data-name="Ellipse 26" cx="17" cy="17" r="17" fill="#ffa70d"/>
  <path id="arrow" d="M25.564,1007.9a.805.805,0,0,0-.477-.2l-8.12-.246a.7.7,0,0,0-.715.677.717.717,0,0,0,.677.715l6.513.192-7.228,7.228a.7.7,0,1,0,.984.984l7.228-7.228.192,6.513a.729.729,0,0,0,.715.677.7.7,0,0,0,.677-.715l-.246-8.12a.619.619,0,0,0-.2-.477Z" transform="translate(-4.01 -995.449)" fill="#fff"/>
</svg>
