<svg xmlns="http://www.w3.org/2000/svg" width="21" height="21" viewBox="0 0 21 21">
  <path id="bitrix_logo" data-name="bitrix logo" d="M18455,20380.5a10.469,10.469,0,0,1,3.621-7.932l.055,4.588c.055,4.672.066,4.908.287,5.5a6.962,6.962,0,0,0,1.736,2.74,6.777,6.777,0,0,0,7.84,1.326,6.92,6.92,0,0,0,3.854-6.545,6.443,6.443,0,0,0-2.035-4.432,6.744,6.744,0,0,0-3.42-1.906c-1.287-.271-1.227-.309-1.227.779v.939l.707.131a4.985,4.985,0,0,1,3.975,5.895,4.822,4.822,0,0,1-1.24,2.33,4.962,4.962,0,0,1-8.111-1.256,6.031,6.031,0,0,1-.283-.783,26.263,26.263,0,0,1-.145-5.447l-.029-5.2c.23-.123.467-.236.707-.344.027.629.057,2.785.07,5.328,0,0-.389,3.975.092,5.5.068.221.2.6.2.6a4.31,4.31,0,0,0,1.969,2.02,3.7,3.7,0,0,0,1.98.455,4.377,4.377,0,0,0,3.848-2.652,4.22,4.22,0,0,0-2.77-5.613c-.988-.289-.969-.3-.969.768v.936l.475.127a2.3,2.3,0,0,1,.889,3.918,2.21,2.21,0,0,1-1.648.6,2.273,2.273,0,0,1-2.215-2.281c0-1.783-.039-4.99-.039-4.99l-.029-5.314a10.5,10.5,0,1,1-8.143,10.232Z" transform="translate(-18455 -20370.002)" fill="#c60c30"/>
</svg>
