<svg xmlns="http://www.w3.org/2000/svg" width="22" height="22" viewBox="0 0 22 22">
  <path id="whatsapp" d="M18.7,35.2A10.905,10.905,0,0,0,1.547,48.353L0,54l5.78-1.517a10.869,10.869,0,0,0,5.21,1.326h0A10.833,10.833,0,0,0,18.7,35.2ZM11,51.972A9.045,9.045,0,0,1,6.379,50.71l-.329-.2-3.428.9.913-3.344-.216-.344a9.079,9.079,0,1,1,16.839-4.817A9.162,9.162,0,0,1,11,51.972Zm4.97-6.787c-.27-.138-1.611-.8-1.861-.884s-.432-.138-.614.137-.7.884-.864,1.071-.319.206-.589.069a7.415,7.415,0,0,1-3.708-3.241c-.28-.481.28-.447.8-1.488a.5.5,0,0,0-.025-.476c-.069-.138-.614-1.478-.84-2.023s-.447-.457-.614-.467-.339-.01-.521-.01a1.009,1.009,0,0,0-.727.339,3.061,3.061,0,0,0-.953,2.274A5.337,5.337,0,0,0,6.561,43.3a12.173,12.173,0,0,0,4.655,4.115,5.33,5.33,0,0,0,3.271.683,2.79,2.79,0,0,0,1.837-1.3,2.278,2.278,0,0,0,.157-1.3C16.417,45.387,16.235,45.318,15.965,45.185Z" transform="translate(0 -32)" fill="#2d2d2d"/>
</svg>
